<svg width="95" height="27" viewBox="0 0 95 27" fill="none" xmlns="http://www.w3.org/2000/svg">
<path d="M21.2 3.6V26H16.016V16.816H5.84V26H0.656V3.6H5.84V12.432H16.016V3.6H21.2ZM26.1478 8.784H31.1398V26H26.1478V8.784ZM28.6438 6.384C27.7264 6.384 26.9798 6.11733 26.4038 5.584C25.8278 5.05067 25.5398 4.38933 25.5398 3.6C25.5398 2.81067 25.8278 2.14933 26.4038 1.616C26.9798 1.08267 27.7264 0.815998 28.6438 0.815998C29.5611 0.815998 30.3078 1.072 30.8838 1.584C31.4598 2.096 31.7478 2.736 31.7478 3.504C31.7478 4.336 31.4598 5.02933 30.8838 5.584C30.3078 6.11733 29.5611 6.384 28.6438 6.384ZM40.5408 11.056C41.1381 10.224 41.9381 9.59467 42.9408 9.168C43.9648 8.74133 45.1381 8.528 46.4608 8.528V13.136C45.9061 13.0933 45.5328 13.072 45.3408 13.072C43.9114 13.072 42.7914 13.4773 41.9808 14.288C41.1701 15.0773 40.7648 16.272 40.7648 17.872V26H35.7728V8.784H40.5408V11.056ZM57.9448 22.256C58.8408 22.256 59.6301 22.128 60.3128 21.872C61.0168 21.5947 61.6674 21.168 62.2648 20.592L64.9208 23.472C63.2994 25.328 60.9314 26.256 57.8168 26.256C55.8754 26.256 54.1581 25.8827 52.6648 25.136C51.1714 24.368 50.0194 23.312 49.2088 21.968C48.3981 20.624 47.9928 19.0987 47.9928 17.392C47.9928 15.7067 48.3874 14.192 49.1768 12.848C49.9874 11.4827 51.0861 10.4267 52.4728 9.68C53.8808 8.912 55.4594 8.528 57.2088 8.528C58.8514 8.528 60.3448 8.88 61.6888 9.584C63.0328 10.2667 64.0994 11.2693 64.8888 12.592C65.6994 13.8933 66.1048 15.44 66.1048 17.232L53.3688 19.696C53.7314 20.5493 54.2968 21.1893 55.0648 21.616C55.8541 22.0427 56.8141 22.256 57.9448 22.256ZM57.2088 12.304C55.9501 12.304 54.9261 12.7093 54.1368 13.52C53.3474 14.3307 52.9314 15.4507 52.8888 16.88L61.2728 15.248C61.0381 14.352 60.5581 13.6373 59.8328 13.104C59.1074 12.5707 58.2328 12.304 57.2088 12.304ZM78.1323 22.256C79.0283 22.256 79.8176 22.128 80.5003 21.872C81.2043 21.5947 81.8549 21.168 82.4523 20.592L85.1083 23.472C83.4869 25.328 81.1189 26.256 78.0043 26.256C76.0629 26.256 74.3456 25.8827 72.8523 25.136C71.3589 24.368 70.2069 23.312 69.3963 21.968C68.5856 20.624 68.1803 19.0987 68.1803 17.392C68.1803 15.7067 68.5749 14.192 69.3643 12.848C70.1749 11.4827 71.2736 10.4267 72.6603 9.68C74.0683 8.912 75.6469 8.528 77.3963 8.528C79.0389 8.528 80.5323 8.88 81.8763 9.584C83.2203 10.2667 84.2869 11.2693 85.0763 12.592C85.8869 13.8933 86.2923 15.44 86.2923 17.232L73.5563 19.696C73.9189 20.5493 74.4843 21.1893 75.2523 21.616C76.0416 22.0427 77.0016 22.256 78.1323 22.256ZM77.3963 12.304C76.1376 12.304 75.1136 12.7093 74.3243 13.52C73.5349 14.3307 73.1189 15.4507 73.0763 16.88L81.4603 15.248C81.2256 14.352 80.7456 13.6373 80.0203 13.104C79.2949 12.5707 78.4203 12.304 77.3963 12.304Z" fill="#333342"/>
<path d="M91.5358 26.256C90.6611 26.256 89.9251 25.9573 89.3278 25.36C88.7304 24.7627 88.4318 24.016 88.4318 23.12C88.4318 22.2027 88.7304 21.4667 89.3278 20.912C89.9251 20.336 90.6611 20.048 91.5358 20.048C92.4104 20.048 93.1464 20.336 93.7438 20.912C94.3411 21.4667 94.6398 22.2027 94.6398 23.12C94.6398 24.016 94.3411 24.7627 93.7438 25.36C93.1464 25.9573 92.4104 26.256 91.5358 26.256Z" fill="url(#paint0_linear_35_157)"/>
<defs>
<linearGradient id="paint0_linear_35_157" x1="47" y1="-5" x2="47" y2="34" gradientUnits="userSpaceOnUse">
<stop stop-color="#ED267B"/>
<stop offset="1" stop-color="#CE33C7"/>
</linearGradient>
</defs>
</svg>
